<svg xmlns="http://www.w3.org/2000/svg" viewBox="0 0 200 200" width="200" height="200">
  <!-- Ears -->
  <ellipse cx="55" cy="60" rx="20" ry="35" fill="white" stroke="#ddd" stroke-width="2"/>
  <ellipse cx="145" cy="60" rx="20" ry="35" fill="white" stroke="#ddd" stroke-width="2"/>
  <ellipse cx="55" cy="60" rx="12" ry="25" fill="#ffe4e1"/>
  <ellipse cx="145" cy="60" rx="12" ry="25" fill="#ffe4e1"/>
  <!-- Face -->
  <ellipse cx="100" cy="115" rx="65" ry="60" fill="white" stroke="#ddd" stroke-width="2"/>
  <!-- Cheeks -->
  <ellipse cx="100" cy="85" rx="15" ry="8" fill="#87ceeb"/>
  <!-- Eyes -->
  <ellipse cx="80" cy="110" rx="6" ry="7" fill="#4169e1"/>
  <ellipse cx="120" cy="110" rx="6" ry="7" fill="#4169e1"/>
  <circle cx="82" cy="108" r="2" fill="white"/>
  <circle cx="122" cy="108" r="2" fill="white"/>
  <!-- Nose -->
  <ellipse cx="100" cy="122" rx="5" ry="4" fill="#ffb347"/>
  <!-- Mouth -->
  <path d="M 92 130 Q 100 140 108 130" stroke="#ff69b4" stroke-width="2" fill="none"/>
  <!-- Blush -->
  <ellipse cx="70" cy="125" rx="10" ry="6" fill="#ffcccc" opacity="0.5"/>
  <ellipse cx="130" cy="125" rx="10" ry="6" fill="#ffcccc" opacity="0.5"/>
  <!-- Cinnamon roll (tail) -->
  <circle cx="170" cy="150" r="15" fill="white" stroke="#ddd" stroke-width="2"/>
  <path d="M 170 140 Q 180 145 175 155 Q 170 165 160 160 Q 150 155 155 145 Q 160 135 170 140" fill="white" stroke="#ddd" stroke-width="2"/>
</svg>
