<svg xmlns="http://www.w3.org/2000/svg" viewBox="0 0 200 200" width="200" height="200">
  <!-- Hood -->
  <ellipse cx="100" cy="110" rx="75" ry="70" fill="#ffb6c1"/>
  <!-- Ears -->
  <ellipse cx="60" cy="50" rx="20" ry="40" fill="#ffb6c1"/>
  <ellipse cx="140" cy="50" rx="20" ry="40" fill="#ffb6c1"/>
  <ellipse cx="60" cy="50" rx="12" ry="30" fill="#ff69b4"/>
  <ellipse cx="140" cy="50" rx="12" ry="30" fill="#ff69b4"/>
  <!-- Face -->
  <ellipse cx="100" cy="120" rx="55" ry="50" fill="white"/>
  <!-- Bow -->
  <circle cx="50" cy="85" r="10" fill="#ff69b4"/>
  <ellipse cx="38" cy="82" rx="12" ry="8" fill="#ff69b4"/>
  <ellipse cx="62" cy="82" rx="12" ry="8" fill="#ff69b4"/>
  <!-- Eyes -->
  <ellipse cx="82" cy="115" rx="5" ry="6" fill="#333"/>
  <ellipse cx="118" cy="115" rx="5" ry="6" fill="#333"/>
  <!-- Nose -->
  <ellipse cx="100" cy="125" rx="4" ry="3" fill="#ffb347"/>
  <!-- Mouth -->
  <path d="M 95 132 Q 100 138 105 132" stroke="#333" stroke-width="2" fill="none"/>
  <!-- Blush -->
  <ellipse cx="75" cy="130" rx="8" ry="5" fill="#ffcccc" opacity="0.6"/>
  <ellipse cx="125" cy="130" rx="8" ry="5" fill="#ffcccc" opacity="0.6"/>
</svg>
