<svg xmlns="http://www.w3.org/2000/svg" viewBox="0 0 200 200" width="200" height="200">
  <defs>
    <linearGradient id="hair" x1="0%" y1="0%" x2="100%" y2="100%">
      <stop offset="0%" style="stop-color:#ff6b9d"/>
      <stop offset="100%" style="stop-color:#ff1493"/>
    </linearGradient>
  </defs>
  <circle cx="100" cy="100" r="90" fill="#ffe4e1"/>
  <ellipse cx="100" cy="80" rx="70" ry="50" fill="url(#hair)"/>
  <ellipse cx="50" cy="90" rx="25" ry="40" fill="url(#hair)"/>
  <ellipse cx="150" cy="90" rx="25" ry="40" fill="url(#hair)"/>
  <circle cx="100" cy="110" r="50" fill="#ffe4e1"/>
  <circle cx="82" cy="105" r="6" fill="#333"/>
  <circle cx="118" cy="105" r="6" fill="#333"/>
  <circle cx="84" cy="103" r="2" fill="white"/>
  <circle cx="120" cy="103" r="2" fill="white"/>
  <ellipse cx="100" cy="118" rx="4" ry="3" fill="#ff69b4"/>
  <path d="M 90 128 Q 100 138 110 128" stroke="#333" stroke-width="2" fill="none"/>
  <ellipse cx="70" cy="115" rx="8" ry="5" fill="#ffcccc" opacity="0.6"/>
  <ellipse cx="130" cy="115" rx="8" ry="5" fill="#ffcccc" opacity="0.6"/>
  <path d="M 60 70 Q 70 60 80 70" stroke="#ff1493" stroke-width="3" fill="none"/>
  <path d="M 120 70 Q 130 60 140 70" stroke="#ff1493" stroke-width="3" fill="none"/>
  <circle cx="100" cy="60" r="8" fill="#ff1493"/>
</svg>