<svg xmlns="http://www.w3.org/2000/svg" viewBox="0 0 200 200" width="200" height="200">
  <defs>
    <linearGradient id="hair" x1="0%" y1="0%" x2="100%" y2="100%">
      <stop offset="0%" style="stop-color:#4b0082"/>
      <stop offset="100%" style="stop-color:#8b008b"/>
    </linearGradient>
  </defs>
  <circle cx="100" cy="100" r="90" fill="#ffe4e1"/>
  <ellipse cx="100" cy="80" rx="55" ry="45" fill="url(#hair)"/>
  <path d="M 45 85 Q 35 50 55 65" fill="url(#hair)"/>
  <path d="M 155 85 Q 165 50 145 65" fill="url(#hair)"/>
  <ellipse cx="55" cy="120" rx="12" ry="25" fill="url(#hair)"/>
  <ellipse cx="145" cy="120" rx="12" ry="25" fill="url(#hair)"/>
  <circle cx="100" cy="112" r="48" fill="#ffe4e1"/>
  <circle cx="82" cy="108" r="5" fill="#333"/>
  <circle cx="118" cy="108" r="5" fill="#333"/>
  <circle cx="83" cy="106" r="1.5" fill="white"/>
  <circle cx="119" cy="106" r="1.5" fill="white"/>
  <ellipse cx="100" cy="118" rx="3" ry="2.5" fill="#ff69b4"/>
  <path d="M 92 126 Q 100 134 108 126" stroke="#333" stroke-width="2" fill="none"/>
  <ellipse cx="72" cy="116" rx="7" ry="4" fill="#ffcccc" opacity="0.5"/>
  <ellipse cx="128" cy="116" rx="7" ry="4" fill="#ffcccc" opacity="0.5"/>
  <path d="M 88 52 L 92 45 L 96 52" fill="#8b5cf6"/>
  <path d="M 104 52 L 108 45 L 112 52" fill="#8b5cf6"/>
</svg>