<svg xmlns="http://www.w3.org/2000/svg" viewBox="0 0 200 200" width="200" height="200">
  <defs>
    <linearGradient id="hair" x1="0%" y1="0%" x2="100%" y2="100%">
      <stop offset="0%" style="stop-color:#1e90ff"/>
      <stop offset="100%" style="stop-color:#00bfff"/>
    </linearGradient>
  </defs>
  <circle cx="100" cy="100" r="90" fill="#ffe4e1"/>
  <ellipse cx="100" cy="85" rx="60" ry="48" fill="url(#hair)"/>
  <ellipse cx="55" cy="100" rx="15" ry="35" fill="url(#hair)"/>
  <ellipse cx="145" cy="100" rx="15" ry="35" fill="url(#hair)"/>
  <circle cx="100" cy="112" r="48" fill="#ffe4e1"/>
  <circle cx="82" cy="108" r="5" fill="#333"/>
  <circle cx="118" cy="108" r="5" fill="#333"/>
  <circle cx="83" cy="106" r="1.5" fill="white"/>
  <circle cx="119" cy="106" r="1.5" fill="white"/>
  <ellipse cx="100" cy="118" rx="3" ry="2.5" fill="#ff69b4"/>
  <path d="M 90 126 Q 100 138 110 126" stroke="#333" stroke-width="2" fill="none"/>
  <ellipse cx="72" cy="116" rx="7" ry="4" fill="#ffcccc" opacity="0.5"/>
  <ellipse cx="128" cy="116" rx="7" ry="4" fill="#ffcccc" opacity="0.5"/>
  <path d="M 75 55 Q 100 45 125 55" stroke="#06b6d4" stroke-width="4" fill="none"/>
</svg>